<svg width="840" height="1540" viewBox="0 0 840 1540" xmlns="http://www.w3.org/2000/svg">
<rect x="0" y="0" width="840" height="1540" fill="#5A5A5A"/>
<svg width="820" height="500" viewBox="0 0 820 500" xmlns="http://www.w3.org/2000/svg" x="10" y="10">
<rect x="0" y="0" width="820" height="500" fill="#FFFFFF"/>
<text font-size="18" x="317.5" y="5" dy="15" font-weight="bold" dominant-baseline="middle" font-family="sans-serif" fill="#464646">
Function Transformed
</text>
<text font-size="14" x="285.5" y="35" dy="10" dominant-baseline="middle" font-family="sans-serif" fill="#464646">
Percentage of Functions Transformed
</text>
<g>
<rect x="644" y="10" width="25" height="10" stroke="#5B8FF9" fill="#5B8FF9"/>
<text font-size="14" x="672" y="19" font-family="sans-serif" fill="#464646">
Transformed
</text>
</g>
<g>
<rect x="761" y="10" width="25" height="10" stroke="#5AD8A6" fill="#5AD8A6"/>
<text font-size="14" x="789" y="19" font-family="sans-serif" fill="#464646">
Not
</text>
</g>
<path d="M386,205.5 L386,111.5 A8 8 0 0 1 391.2,103.6 A150 150 0 0 1 391.2,403.4 A150 150 0 0 1 373.3,104 A8 8 0 0 1 379,111.7 L383.6,205.6 A8 8 0 0 1 382.6,213.6 A40 40 0 0 0 388,293.5 A40 40 0 0 0 387.4,213.5 A8 8 0 0 1 386,205.5 Z" fill="#5B8FF9"/>
<path d="M389.7,403.5 C389.8 408.5, 387.6 420.9, 390.2 423.4 C392.8 425.9, 405.2 423.4, 410.2 423.4" stroke-width="1" fill="none" stroke="#5B8FF9"/>
<text font-size="14" x="413.2" y="428.4" font-family="sans-serif" fill="#464646">
Transformed: 99.2% (118500)
</text>
<path d="M383.6,205.6 L379,111.7 A8 8 0 0 1 383.8,103.5 A150 150 0 0 1 380.8,103.6 A8 8 0 0 1 386,111.5 L386,205.5 A8 8 0 0 1 384.6,213.5 A40 40 0 0 0 385.4,213.5 A8 8 0 0 1 383.6,205.6 Z" fill="#5AD8A6"/>
<path d="M382.3,103.5 C382.2 98.5, 384.4 86.1, 381.8 83.6 C379.2 81.1, 366.8 83.6, 361.8 83.6" stroke-width="1" fill="none" stroke="#5AD8A6"/>
<text font-size="14" x="262.8" y="88.6" font-family="sans-serif" fill="#464646">
Not: 0.8% (942)
</text>
</svg>
<svg width="820" height="500" viewBox="0 0 820 500" xmlns="http://www.w3.org/2000/svg" x="10" y="520">
<rect x="0" y="0" width="820" height="500" fill="#FFFFFF"/>
<text font-size="18" x="285" y="5" dy="15" font-weight="bold" dominant-baseline="middle" font-family="Roboto" fill="#464646">
Rejected Function Breakdown
</text>
<path d="M378,193.5 L378,196.5 A2 2 0 0 1 379.4,194.5 A41 41 0 0 1 391.5,196.8 A2 2 0 0 1 392.1,199.1 L393.2,196.3 A2 2 0 0 1 391.1,197.7 A40 40 0 0 0 379.4,195.5 A2 2 0 0 1 378,193.5 Z" fill="#5B8FF9"/>
<path d="M385.5,195.2 C391.5 163.5, 399.8 95.8, 409.2 68.4 C410.7 64.1, 424.2 68.4, 429.2 68.4" stroke-width="1" fill="none" stroke="#5B8FF9"/>
<text font-size="14" x="432.2" y="73.4" font-family="Roboto" fill="#464646">
DecodeFailure: 0% (0)
</text>
<path d="M393.2,196.3 L392.1,199.1 A2 2 0 0 1 394.1,197.8 A41 41 0 0 1 404.5,204.3 A2 2 0 0 1 404.3,206.7 L406.3,204.5 A2 2 0 0 1 403.9,205 A40 40 0 0 0 393.7,198.7 A2 2 0 0 1 393.2,196.3 Z" fill="#5AD8A6"/>
<path d="M399.6,200.6 C416.6 173.2, 448.5 114.7, 467.5 91 C470.4 87.3, 482.5 91, 487.5 91" stroke-width="1" fill="none" stroke="#5AD8A6"/>
<text font-size="14" x="490.5" y="96" font-family="Roboto" fill="#464646">
InvalidReference: 0% (0)
</text>
<path d="M406.3,204.5 L404.3,206.7 A2 2 0 0 1 406.7,206.2 A41 41 0 0 1 414,216 A2 2 0 0 1 412.9,218.1 L415.6,216.8 A2 2 0 0 1 413.2,216.4 A40 40 0 0 0 406,206.9 A2 2 0 0 1 406.3,204.5 Z" fill="#5D7092"/>
<path d="M410.7,210.8 C436.5 191.4, 487.1 149.9, 513.7 133.1 C517.8 130.4, 528.7 133.1, 533.7 133.1" stroke-width="1" fill="none" stroke="#5D7092"/>
<text font-size="14" x="536.7" y="138.1" font-family="Roboto" fill="#464646">
InvalidCall: 0% (0)
</text>
<path d="M415.6,216.8 L412.9,218.1 A2 2 0 0 1 415.3,218.5 A41 41 0 0 1 418.7,230.3 A2 2 0 0 1 416.8,231.9 L419.8,231.6 A2 2 0 0 1 417.7,230.4 A40 40 0 0 0 414.4,218.9 A2 2 0 0 1 415.6,216.8 Z" fill="#F6BD16"/>
<path d="M417.4,224.3 C448.5 215.5, 510.3 196.6, 541.5 189 C546.3 187.8, 556.5 189, 561.5 189" stroke-width="1" fill="none" stroke="#F6BD16"/>
<text font-size="14" x="564.5" y="194" font-family="Roboto" fill="#464646">
FarJump: 0% (0)
</text>
<path d="M419.8,231.6 L416.8,231.9 A2 2 0 0 1 418.9,233.1 A41 41 0 0 1 417.8,245.3 A2 2 0 0 1 415.5,246.2 L418.4,247 A2 2 0 0 1 416.8,245.1 A40 40 0 0 0 417.9,233.2 A2 2 0 0 1 419.8,231.6 Z" fill="#6F5EF9"/>
<path d="M418.8,239.3 C450.9 242.3, 515.1 248.6, 547.3 251.2 C552.3 251.6, 562.3 251.2, 567.3 251.2" stroke-width="1" fill="none" stroke="#6F5EF9"/>
<text font-size="14" x="570.3" y="256.2" font-family="Roboto" fill="#464646">
InvalidJump: 0% (0)
</text>
<path d="M424.2,248.6 L514.6,274.4 A8 8 0 0 1 520.8,281.6 A150 150 0 0 1 500.8,321.7 A8 8 0 0 1 491.3,321.1 L416.3,264.4 A8 8 0 0 1 410.7,258.5 A40 40 0 0 0 416.1,247.8 A8 8 0 0 1 424.2,248.6 Z" fill="#6DC8EC"/>
<path d="M512.3,302.4 C516.8 304.6, 525.4 310.2, 530.2 311.3 C534.9 312.4, 545.2 311.3, 550.2 311.3" stroke-width="1" fill="none" stroke="#6DC8EC"/>
<text font-size="14" x="553.2" y="316.3" font-family="Roboto" fill="#464646">
InvalidIndirectJump: 97.3% (917)
</text>
<path d="M411.5,260.8 L409.1,259 A2 2 0 0 1 409.8,261.3 A41 41 0 0 1 400.8,269.6 A2 2 0 0 1 398.5,268.7 L400.1,271.2 A2 2 0 0 1 400.2,268.8 A40 40 0 0 0 409.1,260.7 A2 2 0 0 1 411.5,260.8 Z" fill="#945FB9"/>
<path d="M405.6,265.8 C427.3 289.6, 469.4 340.5, 492.5 361.1 C496.1 364.3, 507.5 361.1, 512.5 361.1" stroke-width="1" fill="none" stroke="#945FB9"/>
<text font-size="14" x="515.5" y="366.1" font-family="Roboto" fill="#464646">
InvalidJcc: 0% (0)
</text>
<path d="M400.1,271.2 L398.5,268.7 A2 2 0 0 1 398.4,271.1 A41 41 0 0 1 386.9,275.5 A2 2 0 0 1 385.2,273.8 L385.7,276.8 A2 2 0 0 1 386.7,274.5 A40 40 0 0 0 397.9,270.2 A2 2 0 0 1 400.1,271.2 Z" fill="#FF9845"/>
<path d="M392.8,273.7 C404.5 303.8, 425 368, 439.4 394 C441.6 398.1, 454.4 394, 459.4 394" stroke-width="1" fill="none" stroke="#FF9845"/>
<text font-size="14" x="462.4" y="399" font-family="Roboto" fill="#464646">
FallthroughToFunction: 0% (0)
</text>
<path d="M385.7,276.8 L385.2,273.8 A2 2 0 0 1 384.1,276 A41 41 0 0 1 371.9,276 A2 2 0 0 1 370.8,273.8 L370.3,276.8 A2 2 0 0 1 372,275.1 A40 40 0 0 0 384,275.1 A2 2 0 0 1 385.7,276.8 Z" fill="#5B8FF9"/>
<path d="M378,276.5 C378 308.8, 373.7 377.6, 378 405.5 C378.7 409.8, 393 405.5, 398 405.5" stroke-width="1" fill="none" stroke="#5B8FF9"/>
<text font-size="14" x="401" y="410.5" font-family="Roboto" fill="#464646">
InvalidInterrupt: 0% (0)
</text>
<path d="M370.3,276.8 L370.8,273.8 A2 2 0 0 1 369.1,275.5 A41 41 0 0 1 357.6,271.1 A2 2 0 0 1 357.5,268.7 L355.9,271.2 A2 2 0 0 1 358.1,270.2 A40 40 0 0 0 369.3,274.5 A2 2 0 0 1 370.3,276.8 Z" fill="#5AD8A6"/>
<path d="M363.2,273.7 C351.5 303.2, 331 366.1, 316.6 391.5 C314.3 395.5, 301.6 391.5, 296.6 391.5" stroke-width="1" fill="none" stroke="#5AD8A6"/>
<text font-size="14" x="155.6" y="396.5" font-family="Roboto" fill="#464646">
XAbortOrXEnd: 0% (0)
</text>
<path d="M355.9,271.2 L357.5,268.7 A2 2 0 0 1 355.2,269.6 A41 41 0 0 1 346.2,261.3 A2 2 0 0 1 346.9,259 L344.5,260.8 A2 2 0 0 1 346.9,260.7 A40 40 0 0 0 355.8,268.8 A2 2 0 0 1 355.9,271.2 Z" fill="#5D7092"/>
<path d="M350.4,265.8 C328.7 289.6, 286.6 340.5, 263.5 361.1 C259.9 364.3, 248.5 361.1, 243.5 361.1" stroke-width="1" fill="none" stroke="#5D7092"/>
<text font-size="14" x="61.5" y="366.1" font-family="Roboto" fill="#464646">
UnhandledException: 0% (0)
</text>
<path d="M344.5,260.8 L346.9,259 A2 2 0 0 1 344.4,259.1 A41 41 0 0 1 339,248.1 A2 2 0 0 1 340.5,246.2 L337.6,247 A2 2 0 0 1 339.9,247.8 A40 40 0 0 0 345.3,258.5 A2 2 0 0 1 344.5,260.8 Z" fill="#F6BD16"/>
<path d="M341.3,253.8 C312.4 268.2, 255.1 298.8, 225.8 311.3 C221.3 313.2, 210.8 311.3, 205.8 311.3" stroke-width="1" fill="none" stroke="#F6BD16"/>
<text font-size="14" x="56.8" y="316.3" font-family="Roboto" fill="#464646">
EhInvalidFooter: 0% (0)
</text>
<path d="M337.6,247 L338.6,246.7 A2 2 0 0 1 336.3,245.8 A43 43 0 0 1 335.1,233 A2 2 0 0 1 337.2,231.7 L336.2,231.6 A2 2 0 0 1 338.1,233.2 A40 40 0 0 0 339.2,245.1 A2 2 0 0 1 337.6,247 Z" fill="#6F5EF9"/>
<path d="M335.2,239.5 C303.6 242.4, 240.4 248.7, 208.7 251.2 C203.7 251.6, 193.7 251.2, 188.7 251.2" stroke-width="1" fill="none" stroke="#6F5EF9"/>
<text font-size="14" x="-53.3" y="256.2" font-family="Roboto" fill="#464646">
EhFunctionDoesntOwnInfo: 2.7% (25)
</text>
<path d="M336.2,231.6 L339.2,231.9 A2 2 0 0 1 337.3,230.3 A41 41 0 0 1 340.7,218.5 A2 2 0 0 1 343.1,218.1 L340.4,216.8 A2 2 0 0 1 341.6,218.9 A40 40 0 0 0 338.3,230.4 A2 2 0 0 1 336.2,231.6 Z" fill="#6DC8EC"/>
<path d="M338.6,224.3 C307.5 215.5, 245.7 196.6, 214.5 189 C209.7 187.8, 199.5 189, 194.5 189" stroke-width="1" fill="none" stroke="#6DC8EC"/>
<text font-size="14" x="10.5" y="194" font-family="Roboto" fill="#464646">
EhNoBucketCreation: 0% (0)
</text>
<path d="M340.4,216.8 L343.1,218.1 A2 2 0 0 1 342,216 A41 41 0 0 1 349.3,206.2 A2 2 0 0 1 351.7,206.7 L349.7,204.5 A2 2 0 0 1 350,206.9 A40 40 0 0 0 342.8,216.4 A2 2 0 0 1 340.4,216.8 Z" fill="#945FB9"/>
<path d="M345.3,210.8 C319.5 191.4, 268.9 149.9, 242.3 133.1 C238.2 130.4, 227.3 133.1, 222.3 133.1" stroke-width="1" fill="none" stroke="#945FB9"/>
<text font-size="14" x="108.3" y="138.1" font-family="Roboto" fill="#464646">
EhBadInfo: 0% (0)
</text>
<path d="M349.7,204.5 L351.7,206.7 A2 2 0 0 1 351.5,204.3 A41 41 0 0 1 361.9,197.8 A2 2 0 0 1 363.9,199.1 L362.8,196.3 A2 2 0 0 1 362.3,198.7 A40 40 0 0 0 352.1,205 A2 2 0 0 1 349.7,204.5 Z" fill="#FF9845"/>
<path d="M356.4,200.6 C339.4 173.2, 307.5 114.7, 288.5 91 C285.6 87.3, 273.5 91, 268.5 91" stroke-width="1" fill="none" stroke="#FF9845"/>
<text font-size="14" x="123.5" y="96" font-family="Roboto" fill="#464646">
EhInvalidChain: 0% (0)
</text>
<path d="M362.8,196.3 L363.9,199.1 A2 2 0 0 1 364.5,196.8 A41 41 0 0 1 376.6,194.5 A2 2 0 0 1 378,196.5 L378,193.5 A2 2 0 0 1 376.6,195.5 A40 40 0 0 0 364.9,197.7 A2 2 0 0 1 362.8,196.3 Z" fill="#5B8FF9"/>
<path d="M370.5,195.2 C364.5 163.5, 356.2 95.8, 346.8 68.4 C345.3 64.1, 331.8 68.4, 326.8 68.4" stroke-width="1" fill="none" stroke="#5B8FF9"/>
<text font-size="14" x="113.8" y="73.4" font-family="Roboto" fill="#464646">
EhFooterReferenceFailed: 0% (0)
</text>
</svg>
<svg width="820" height="500" viewBox="0 0 820 500" xmlns="http://www.w3.org/2000/svg" x="10" y="1030">
<rect x="0" y="0" width="820" height="500" fill="#FFFFFF"/>
<text font-size="18" x="308" y="5" dy="15" font-weight="bold" dominant-baseline="middle" font-family="Roboto" fill="#464646">
Executable Bytes Moved
</text>
<text font-size="14" x="219.5" y="35" dy="10" dominant-baseline="middle" font-family="Roboto" fill="#464646">
(The not-moved part of this graph includes some padding)
</text>
<path d="M386,205.5 L386,111.5 A8 8 0 0 1 391.2,103.6 A150 150 0 0 1 391.2,403.4 A150 150 0 0 1 337.5,111.5 A8 8 0 0 1 344.9,117.6 L372.1,207.6 A8 8 0 0 1 373.1,215.6 A40 40 0 0 0 397.6,291.8 A40 40 0 0 0 387.4,213.5 A8 8 0 0 1 386,205.5 Z" fill="#5B8FF9"/>
<path d="M408,401.9 C408.7 406.8, 408 419.2, 410.9 421.7 C413.8 424.1, 425.9 421.7, 430.9 421.7" stroke-width="1" fill="none" stroke="#5B8FF9"/>
<text font-size="14" x="433.9" y="426.7" font-family="Roboto" fill="#464646">
Extracted: 95.3%
</text>
<path d="M372.1,207.6 L344.9,117.6 A8 8 0 0 1 347.6,108.5 A150 150 0 0 1 380.8,103.6 A8 8 0 0 1 386,111.5 L386,205.5 A8 8 0 0 1 384.6,213.5 A40 40 0 0 0 375.8,214.8 A8 8 0 0 1 372.1,207.6 Z" fill="#5AD8A6"/>
<path d="M364,105.1 C363.3 100.2, 364 87.8, 361.1 85.3 C358.2 82.9, 346.1 85.3, 341.1 85.3" stroke-width="1" fill="none" stroke="#5AD8A6"/>
<text font-size="14" x="280.1" y="90.3" font-family="Roboto" fill="#464646">
Not: 4.7%
</text>
</svg>
</svg>